<?xml version="1.0" encoding="UTF-8" standalone="no"?>
<!-- Generator: Adobe Illustrator 19.1.0, SVG Export Plug-In . SVG Version: 6.00 Build 0)  -->

<svg
   xmlns:ns="&amp;ns_sfw;"
   xmlns:dc="http://purl.org/dc/elements/1.1/"
   xmlns:cc="http://creativecommons.org/ns#"
   xmlns:rdf="http://www.w3.org/1999/02/22-rdf-syntax-ns#"
   xmlns:svg="http://www.w3.org/2000/svg"
   xmlns="http://www.w3.org/2000/svg"
   xmlns:sodipodi="http://sodipodi.sourceforge.net/DTD/sodipodi-0.dtd"
   xmlns:inkscape="http://www.inkscape.org/namespaces/inkscape"
   version="1.1"
   id="Layer_1"
   x="0px"
   y="0px"
   viewBox="212 -194 32 32"
   xml:space="preserve"
   inkscape:version="0.91 r13725"
   sodipodi:docname="buffer.svg"
   width="32"
   height="32"><defs
     id="defs23" /><sodipodi:namedview
     pagecolor="#ffffff"
     bordercolor="#666666"
     borderopacity="1"
     objecttolerance="10"
     gridtolerance="10"
     guidetolerance="10"
     inkscape:pageopacity="0"
     inkscape:pageshadow="2"
     inkscape:window-width="1486"
     inkscape:window-height="914"
     id="namedview21"
     showgrid="false"
     fit-margin-top="0"
     fit-margin-left="0"
     fit-margin-right="0"
     fit-margin-bottom="0"
     inkscape:zoom="0.472"
     inkscape:cx="249"
     inkscape:cy="249"
     inkscape:window-x="1562"
     inkscape:window-y="21"
     inkscape:window-maximized="0"
     inkscape:current-layer="Layer_1" /><style
     type="text/css"
     id="style3">
	.st0{fill:#E2DDDB;}
	.st1{fill:#333333;}
</style><metadata
     id="metadata5"><ns:sfw><ns:slices /><ns:sliceSourceBounds
         height="498"
         width="498"
         x="7"
         y="1"
         bottomLeftOrigin="true" /></ns:sfw><rdf:RDF><cc:Work
         rdf:about=""><dc:format>image/svg+xml</dc:format><dc:type
           rdf:resource="http://purl.org/dc/dcmitype/StillImage" /><dc:title></dc:title></cc:Work></rdf:RDF></metadata><g
     id="g7"
     transform="matrix(0.06425703,0,0,0.06425703,198.31325,-181.59839)"><path
       class="st0"
       d="m 213,-193 0,498 498,0 0,-498 -498,0 0,0 z"
       id="path9"
       inkscape:connector-curvature="0"
       style="fill:#e2dddb" /></g><g
     id="g11"
     transform="matrix(0.06425703,0,0,0.06425703,198.31325,-181.59839)"><g
       id="g13"><path
         class="st1"
         d="M 334.7,-6.9 451,49.3 c 3,1.4 7.1,2.2 11.1,2.2 4,0 8,-0.8 11.1,-2.2 L 589.4,-6.9 c 6.1,-3 6.1,-7.8 0,-10.7 L 473.1,-73.7 c -3,-1.4 -7.1,-2.2 -11.1,-2.2 -4,0 -8,0.8 -11.1,2.2 l -116.2,56.1 c -6.1,3 -6.1,7.8 0,10.7 z"
         id="path15"
         inkscape:connector-curvature="0"
         style="fill:#333333" /><path
         class="st1"
         d="m 589.4,50.6 c 0,0 -21.2,-10.2 -24,-11.6 -2.8,-1.4 -3.6,-1.3 -6.5,0.1 -2.9,1.4 -85.8,41.4 -85.8,41.4 -3.1,1.4 -7.1,2.2 -11.1,2.2 -4,0 -8,-0.8 -11.1,-2.2 0,0 -80.6,-38.9 -84.4,-40.7 -4.1,-2 -5.3,-2 -9,-0.2 -3.8,1.9 -23,11.1 -23,11.1 -6.1,3 -6.1,7.8 0,10.7 l 116.3,56.1 c 3,1.4 7.1,2.2 11.1,2.2 4,0 8,-0.8 11.1,-2.2 L 589.3,61.4 c 6.2,-3 6.2,-7.8 0.1,-10.8 z"
         id="path17"
         inkscape:connector-curvature="0"
         style="fill:#333333" /></g><path
       class="st1"
       d="m 589.4,118.9 c 0,0 -21.2,-10.2 -24,-11.6 -2.8,-1.4 -3.6,-1.3 -6.5,0.1 -3,1.4 -85.7,41.4 -85.7,41.4 -3.1,1.4 -7.1,2.2 -11.1,2.2 -4,0 -8,-0.8 -11.1,-2.2 0,0 -80.6,-38.9 -84.4,-40.7 -4.1,-2 -5.3,-2 -9,-0.2 -3.8,1.9 -23,11.1 -23,11.1 -6.1,3 -6.1,7.8 0,10.7 l 116.3,56.1 c 3,1.5 7.1,2.2 11.1,2.2 4,0 8,-0.8 11.1,-2.2 l 116.3,-56.1 c 6.1,-3.1 6.1,-7.9 0,-10.8 z"
       id="path19"
       inkscape:connector-curvature="0"
       style="fill:#333333" /></g></svg>