<?xml version="1.0" encoding="UTF-8" standalone="no"?>
<!-- Generator: Adobe Illustrator 19.1.0, SVG Export Plug-In . SVG Version: 6.00 Build 0)  -->

<svg
   xmlns:ns="&amp;ns_sfw;"
   xmlns:dc="http://purl.org/dc/elements/1.1/"
   xmlns:cc="http://creativecommons.org/ns#"
   xmlns:rdf="http://www.w3.org/1999/02/22-rdf-syntax-ns#"
   xmlns:svg="http://www.w3.org/2000/svg"
   xmlns="http://www.w3.org/2000/svg"
   xmlns:sodipodi="http://sodipodi.sourceforge.net/DTD/sodipodi-0.dtd"
   xmlns:inkscape="http://www.inkscape.org/namespaces/inkscape"
   version="1.1"
   id="Layer_1"
   x="0px"
   y="0px"
   viewBox="212 -194 32 32"
   xml:space="preserve"
   inkscape:version="0.91 r13725"
   sodipodi:docname="facebook.svg"
   width="32"
   height="32"><defs
     id="defs17" /><sodipodi:namedview
     pagecolor="#ffffff"
     bordercolor="#666666"
     borderopacity="1"
     objecttolerance="10"
     gridtolerance="10"
     guidetolerance="10"
     inkscape:pageopacity="0"
     inkscape:pageshadow="2"
     inkscape:window-width="1282"
     inkscape:window-height="772"
     id="namedview15"
     showgrid="false"
     inkscape:zoom="0.6675088"
     inkscape:cx="30.330086"
     inkscape:cy="366.04032"
     inkscape:window-x="1729"
     inkscape:window-y="129"
     inkscape:window-maximized="0"
     inkscape:current-layer="Layer_1" /><style
     type="text/css"
     id="style3">
	.st0{fill:#37589A;}
	.st1{fill:#FFFFFF;}
</style><metadata
     id="metadata5"><ns:sfw><ns:slices /><ns:sliceSourceBounds
         height="498"
         width="498"
         x="7"
         y="1"
         bottomLeftOrigin="true" /></ns:sfw><rdf:RDF><cc:Work
         rdf:about=""><dc:format>image/svg+xml</dc:format><dc:type
           rdf:resource="http://purl.org/dc/dcmitype/StillImage" /><dc:title></dc:title></cc:Work></rdf:RDF></metadata><g
     id="g7"
     transform="matrix(0.06425703,0,0,0.06425703,199.31325,-182.59839)"><g
       id="g9"><path
         class="st0"
         d="m 213,-193 0,498 498,0 0,-498 -498,0 0,0 z"
         id="path11"
         inkscape:connector-curvature="0"
         style="fill:#37589a" /></g><path
       class="st1"
       d="m 515.3,56.1 -34.9,0 c 0,55.8 0,124.4 0,124.4 l -51.7,0 c 0,0 0,-68 0,-124.4 l -24.6,0 0,-44 24.6,0 0,-28.4 c 0,-20.3 9.7,-52.2 52.2,-52.2 l 38.3,0.2 0,42.7 c 0,0 -23.3,0 -27.8,0 -4.5,0 -11,2.3 -11,12 l 0,25.8 39.4,0 -4.5,43.9 0,0 z"
       id="path13"
       inkscape:connector-curvature="0"
       style="fill:#ffffff" /></g></svg>