<?xml version="1.0" encoding="UTF-8" standalone="no"?>
<!-- Generator: Adobe Illustrator 19.1.0, SVG Export Plug-In . SVG Version: 6.00 Build 0)  -->

<svg
   xmlns:ns="&amp;ns_sfw;"
   xmlns:dc="http://purl.org/dc/elements/1.1/"
   xmlns:cc="http://creativecommons.org/ns#"
   xmlns:rdf="http://www.w3.org/1999/02/22-rdf-syntax-ns#"
   xmlns:svg="http://www.w3.org/2000/svg"
   xmlns="http://www.w3.org/2000/svg"
   xmlns:sodipodi="http://sodipodi.sourceforge.net/DTD/sodipodi-0.dtd"
   xmlns:inkscape="http://www.inkscape.org/namespaces/inkscape"
   version="1.1"
   id="Layer_1"
   x="0px"
   y="0px"
   viewBox="212 -194 32 32"
   xml:space="preserve"
   inkscape:version="0.91 r13725"
   sodipodi:docname="gplus.svg"
   width="32"
   height="32"><defs
     id="defs19" /><sodipodi:namedview
     pagecolor="#ffffff"
     bordercolor="#666666"
     borderopacity="1"
     objecttolerance="10"
     gridtolerance="10"
     guidetolerance="10"
     inkscape:pageopacity="0"
     inkscape:pageshadow="2"
     inkscape:window-width="1428"
     inkscape:window-height="773"
     id="namedview17"
     showgrid="false"
     fit-margin-top="0"
     fit-margin-left="0"
     fit-margin-right="0"
     fit-margin-bottom="0"
     inkscape:zoom="0.944"
     inkscape:cx="-0.17630888"
     inkscape:cy="317.44428"
     inkscape:window-x="1631"
     inkscape:window-y="64"
     inkscape:window-maximized="0"
     inkscape:current-layer="Layer_1" /><style
     type="text/css"
     id="style3">
	.st0{fill:#DA4A38;}
	.st1{fill:#FFFFFF;}
</style><metadata
     id="metadata5"><ns:sfw><ns:slices /><ns:sliceSourceBounds
         height="498"
         width="498"
         x="7"
         y="1"
         bottomLeftOrigin="true" /></ns:sfw><rdf:RDF><cc:Work
         rdf:about=""><dc:format>image/svg+xml</dc:format><dc:type
           rdf:resource="http://purl.org/dc/dcmitype/StillImage" /><dc:title></dc:title></cc:Work></rdf:RDF></metadata><g
     id="g7"
     transform="matrix(0.06425703,0,0,0.06425703,198.31325,-181.59839)"><path
       class="st0"
       d="m 213,-193 0,498 498,0 0,-498 -498,0 0,0 z"
       id="path9"
       inkscape:connector-curvature="0"
       style="fill:#da4a38" /></g><g
     id="g11"
     transform="matrix(0.06425703,0,0,0.06425703,198.31325,-181.59839)"><g
       id="g13"><path
         class="st1"
         d="m 308.5,56.1 c -0.8,40.7 27.2,79.6 65.8,92.2 36.3,12.2 81,3.1 105.2,-28 17.7,-21.8 21.7,-50.9 19.7,-78 -31.1,-0.3 -62.2,-0.2 -93.3,-0.1 0,11.1 0,22.1 0,33.2 18.6,0.5 37.3,0.3 55.9,0.7 -4.7,16.1 -15.4,31.1 -31.7,36.9 -31.4,13.8 -71.4,-4.2 -81.3,-37.2 -11.9,-31.6 7.7,-69.6 39.9,-78.8 20,-7 40.6,0.9 57.7,11.3 8.7,-8.1 16.8,-16.8 24.7,-25.5 -19.4,-16.3 -44.4,-26.2 -70.1,-24 -50.3,0.5 -94.4,47 -92.5,97.3 z M 559.8,14.2 c -0.1,9.3 -0.2,18.6 -0.2,27.9 -9.3,0.1 -18.6,0.1 -27.9,0.2 0,9.3 0,18.5 0,27.8 9.3,0 18.6,0.1 27.9,0.2 0.1,9.3 0.1,18.5 0.2,27.9 9.2,0 18.5,0 27.8,0 0,-9.3 0.1,-18.6 0.2,-27.9 9.3,0 18.6,-0.1 27.9,-0.1 0,-9.3 0,-18.5 0,-27.8 -9.3,0 -18.6,-0.1 -27.9,-0.2 0,-9.3 -0.1,-18.6 -0.2,-27.9 -9.4,-0.1 -18.6,-0.1 -27.8,-0.1 z"
         id="path15"
         inkscape:connector-curvature="0"
         style="fill:#ffffff" /></g></g></svg>