<?xml version="1.0" encoding="UTF-8" standalone="no"?>
<!-- Generator: Adobe Illustrator 19.1.0, SVG Export Plug-In . SVG Version: 6.00 Build 0)  -->

<svg
   xmlns:ns="&amp;ns_sfw;"
   xmlns:dc="http://purl.org/dc/elements/1.1/"
   xmlns:cc="http://creativecommons.org/ns#"
   xmlns:rdf="http://www.w3.org/1999/02/22-rdf-syntax-ns#"
   xmlns:svg="http://www.w3.org/2000/svg"
   xmlns="http://www.w3.org/2000/svg"
   xmlns:sodipodi="http://sodipodi.sourceforge.net/DTD/sodipodi-0.dtd"
   xmlns:inkscape="http://www.inkscape.org/namespaces/inkscape"
   version="1.1"
   id="Layer_1"
   x="0px"
   y="0px"
   viewBox="212 -194 32 32"
   xml:space="preserve"
   inkscape:version="0.91 r13725"
   sodipodi:docname="linkedin.svg"
   width="32"
   height="32"><defs
     id="defs23" /><sodipodi:namedview
     pagecolor="#ffffff"
     bordercolor="#666666"
     borderopacity="1"
     objecttolerance="10"
     gridtolerance="10"
     guidetolerance="10"
     inkscape:pageopacity="0"
     inkscape:pageshadow="2"
     inkscape:window-width="1434"
     inkscape:window-height="930"
     id="namedview21"
     showgrid="false"
     fit-margin-top="0"
     fit-margin-left="0"
     fit-margin-right="0"
     fit-margin-bottom="0"
     inkscape:zoom="0.472"
     inkscape:cx="249"
     inkscape:cy="249"
     inkscape:window-x="1624"
     inkscape:window-y="44"
     inkscape:window-maximized="0"
     inkscape:current-layer="Layer_1" /><style
     type="text/css"
     id="style3">
	.st0{fill:#006799;}
	.st1{fill:#FFFFFF;}
</style><metadata
     id="metadata5"><ns:sfw><ns:slices /><ns:sliceSourceBounds
         height="498"
         width="498"
         x="7"
         y="1"
         bottomLeftOrigin="true" /></ns:sfw><rdf:RDF><cc:Work
         rdf:about=""><dc:format>image/svg+xml</dc:format><dc:type
           rdf:resource="http://purl.org/dc/dcmitype/StillImage" /><dc:title></dc:title></cc:Work></rdf:RDF></metadata><g
     id="g7"
     transform="matrix(0.06425703,0,0,0.06425703,198.31325,-181.59839)"><g
       id="g9"><g
         id="g11"><path
           class="st0"
           d="m 213,-193 0,498 498,0 0,-498 -498,0 0,0 z"
           id="path13"
           inkscape:connector-curvature="0"
           style="fill:#006799" /></g></g><path
       class="st1"
       d="m 586.5,175 -53.4,0 0,-85.9 c 0,-21.6 -7.7,-36.3 -27,-36.3 -14.7,0 -23.5,10 -27.4,19.5 -1.4,3.4 -1.8,8.2 -1.8,13 l 0,89.7 -53.4,0 c 0,0 0.7,-145.5 0,-160.6 l 53.4,0 0,22.7 C 484,26.2 496.7,10.6 525,10.6 c 35.1,0 61.5,23 61.5,72.3 l 0,92.1 0,0 z"
       id="path15"
       inkscape:connector-curvature="0"
       style="fill:#ffffff" /><path
       class="st1"
       d="m 367.3,-7.5 -0.3,0 c -17.9,0 -29.5,-12.4 -29.5,-27.7 0,-15.8 11.9,-27.8 30.2,-27.8 18.3,0 29.5,12 29.8,27.8 0,15.4 -11.6,27.7 -30.2,27.7 l 0,0 z"
       id="path17"
       inkscape:connector-curvature="0"
       style="fill:#ffffff" /><polygon
       class="st1"
       points="394,175 340.6,175 340.6,14.4 394,14.4 394,175 "
       id="polygon19"
       style="fill:#ffffff" /></g></svg>