<?xml version="1.0" encoding="UTF-8" standalone="no"?>
<!-- Generator: Adobe Illustrator 19.1.0, SVG Export Plug-In . SVG Version: 6.00 Build 0)  -->

<svg
   xmlns:ns="&amp;ns_sfw;"
   xmlns:dc="http://purl.org/dc/elements/1.1/"
   xmlns:cc="http://creativecommons.org/ns#"
   xmlns:rdf="http://www.w3.org/1999/02/22-rdf-syntax-ns#"
   xmlns:svg="http://www.w3.org/2000/svg"
   xmlns="http://www.w3.org/2000/svg"
   xmlns:sodipodi="http://sodipodi.sourceforge.net/DTD/sodipodi-0.dtd"
   xmlns:inkscape="http://www.inkscape.org/namespaces/inkscape"
   version="1.1"
   id="Layer_1"
   x="0px"
   y="0px"
   viewBox="212 -194 32 32"
   xml:space="preserve"
   inkscape:version="0.91 r13725"
   sodipodi:docname="twitter.svg"
   width="32"
   height="32"><defs
     id="defs19" /><sodipodi:namedview
     pagecolor="#ffffff"
     bordercolor="#666666"
     borderopacity="1"
     objecttolerance="10"
     gridtolerance="10"
     guidetolerance="10"
     inkscape:pageopacity="0"
     inkscape:pageshadow="2"
     inkscape:window-width="1398"
     inkscape:window-height="949"
     id="namedview17"
     showgrid="false"
     fit-margin-top="0"
     fit-margin-left="0"
     fit-margin-right="0"
     fit-margin-bottom="0"
     inkscape:zoom="0.472"
     inkscape:cx="249"
     inkscape:cy="249"
     inkscape:window-x="1665"
     inkscape:window-y="15"
     inkscape:window-maximized="0"
     inkscape:current-layer="Layer_1" /><style
     type="text/css"
     id="style3">
	.st0{fill:#38A8E0;}
	.st1{fill:#FFFFFF;}
</style><metadata
     id="metadata5"><ns:sfw><ns:slices /><ns:sliceSourceBounds
         height="498"
         width="498"
         x="7"
         y="1"
         bottomLeftOrigin="true" /></ns:sfw><rdf:RDF><cc:Work
         rdf:about=""><dc:format>image/svg+xml</dc:format><dc:type
           rdf:resource="http://purl.org/dc/dcmitype/StillImage" /><dc:title></dc:title></cc:Work></rdf:RDF></metadata><g
     id="g7"
     transform="matrix(0.06425703,0,0,0.06425703,198.31325,-181.59839)"><g
       id="g9"><path
         class="st0"
         d="m 213,-193 0,498 498,0 0,-498 -498,0 0,0 z"
         id="path11"
         inkscape:connector-curvature="0"
         style="fill:#38a8e0" /></g><g
       id="g13"><path
         class="st1"
         d="m 561,5.2 c 0.1,2.2 0.2,4.4 0.2,6.6 0,67.5 -51.4,145.4 -145.4,145.4 -28.9,0 -55.7,-8.5 -78.3,-23 4,0.5 8.1,0.7 12.2,0.7 24,0 46,-8.1 63.4,-21.9 -22.3,-0.4 -41.2,-15.2 -47.7,-35.5 3.1,0.6 6.3,0.9 9.6,0.9 4.7,0 9.2,-0.6 13.4,-1.8 -23.3,-4.7 -41,-25.4 -41,-50.1 0,-0.2 0,-0.4 0,-0.6 6.9,3.8 14.8,6.1 23.1,6.4 -13.7,-9.1 -22.7,-24.8 -22.7,-42.5 0,-9.4 2.5,-18.1 6.9,-25.7 25.3,31 63,51.3 105.4,53.4 -0.9,-3.7 -1.3,-7.6 -1.3,-11.6 0,-28.2 22.9,-51.1 51.1,-51.1 14.7,0 28,6.2 37.3,16.1 11.6,-2.3 22.6,-6.5 32.4,-12.4 -3.8,11.9 -11.9,21.9 -22.5,28.2 10.3,-1.2 20.2,-4 29.3,-8 C 579.7,-11 571,-2 561,5.2 l 0,0 z"
         id="path15"
         inkscape:connector-curvature="0"
         style="fill:#ffffff" /></g></g></svg>